<?xml version="1.0" encoding="utf-8"?>
<!-- Generator: Adobe Illustrator 18.1.0, SVG Export Plug-In . SVG Version: 6.00 Build 0)  -->
<svg version="1.1" id="Layer_1" xmlns="http://www.w3.org/2000/svg" xmlns:xlink="http://www.w3.org/1999/xlink" x="0px" y="0px"
	 viewBox="0 0 670 286" enable-background="new 0 0 670 286" xml:space="preserve">
<g fill="#53cddb">
	<path d="M15.3,15.1h48.4v17.4H33.8v38.9h26.7v17.4H33.8v39.8h30.5V146h-49V15.1z"/>
	<path d="M115.2,14.7h19.6l26,131.3h-18.5l-5.2-29.2h-24.7l-5.2,29.2h-18L115.2,14.7z M134.2,100.2l-9.5-52.5l-9.5,52.5H134.2z"/>
	<path d="M186,141.3v-19.4c8.2,5,15,7.7,21.3,7.7c7.9,0,13.8-4.5,13.8-13.5v-0.4c0-7.5-2.4-12.9-14.4-27.3
		c-16.1-19.3-21.9-27.5-21.9-42.3v-0.4c0-19.3,13.1-32,29.9-32c8.8,0,14.4,1.7,20.2,4.7v19.4c-7.1-4.3-12.2-6.4-18.1-6.4
		c-7.5,0-13.5,5-13.5,13.3v0.4c0,7.3,2.4,11.2,14.4,25.4c17.4,20.6,21.9,29.4,21.9,44.1v0.4c0,19.3-13.7,32.2-30.7,32.2
		C200.4,147.3,193,144.9,186,141.3z"/>
	<path d="M278.8,32.5H261V15.1h53.7v17.4h-17.6V146h-18.3V32.5z"/>
	<path d="M344.1,15.1h18.5v113.5h26.7V146h-45.3V15.1z"/>
	<path d="M436.8,14.7h19.6l26,131.3h-18.5l-5.2-29.2H434l-5.2,29.2h-18L436.8,14.7z M455.9,100.2l-9.5-52.5l-9.5,52.5H455.9z"/>
	<path d="M510.9,15.1h18.5v60.6l23.7-60.6h20.9l-24.5,56.5l25.8,74.4H555l-18.9-53.5l-6.7,16.5v37h-18.5V15.1z"/>
	<path d="M603.1,15.1h48.4v17.4h-29.9v38.9h26.7v17.4h-26.7v39.8H652V146h-49V15.1z"/>
	<path d="M152.9,205.3h-9.5V196h28.7v9.3h-9.4V266h-9.8V205.3z"/>
	<path d="M187.8,196h11.4c12.4,0,21.2,6.9,21.2,21.8v0.7c0,9.3-3.9,15.4-9.4,18.7l10.6,28.8H211l-9.4-25.6c-0.4,0-0.9,0.1-1.3,0.1
		h-2.6V266h-9.9V196z M199.4,231.6c6.6,0,11.1-4,11.1-13V218c0-9.6-4.8-12.8-11.4-12.8h-1.4v26.4H199.4z"/>
	<path d="M237.5,196h9.8v70h-9.8V196z"/>
	<path d="M265.8,230.6h23.7v9.6h-23.7V230.6z"/>
	<path d="M306.3,232.1v-2.2c0-24.2,9-34.4,19.9-34.4c3.4,0,5.2,0.5,7.7,1.7v10.2c-2.5-1.5-4.5-2.3-6.8-2.3
		c-6.1,0-10.8,6.5-10.8,24.7v2.4c0,18.9,4.7,24.7,10.9,24.7c2.1,0,4.4-0.7,6.9-2.2v9.7c-2.5,1.5-5.1,2.1-8.5,2.1
		C314.7,266.5,306.3,256.1,306.3,232.1z"/>
	<path d="M351.5,196h9.8v70h-9.8V196z"/>
	<path d="M386.8,205.3h-9.5V196H406v9.3h-9.4V266h-9.8V205.3z"/>
	<path d="M422.1,196h9.8v70h-9.8V196z"/>
	<path d="M450.7,196h25.9v9.3h-16v20.8h14.3v9.3h-14.3v21.3h16.3v9.3h-26.2V196z"/>
	<path d="M491.8,263.5v-10.4c4.4,2.7,8,4.1,11.4,4.1c4.2,0,7.4-2.4,7.4-7.2v-0.2c0-4-1.3-6.9-7.7-14.6
		c-8.6-10.3-11.7-14.7-11.7-22.6v-0.2c0-10.3,7-17.1,16-17.1c4.7,0,7.7,0.9,10.8,2.5v10.4c-3.8-2.3-6.5-3.4-9.7-3.4
		c-4,0-7.2,2.7-7.2,7.1v0.2c0,3.9,1.3,6,7.7,13.6c9.3,11,11.7,15.7,11.7,23.6v0.2c0,10.3-7.3,17.2-16.4,17.2
		C499.5,266.7,495.5,265.4,491.8,263.5z"/>
</g>
</svg>
