<?xml version="1.0" encoding="utf-8"?>
<!-- Generator: Adobe Illustrator 18.1.0, SVG Export Plug-In . SVG Version: 6.00 Build 0)  -->
<svg version="1.1" id="Layer_1" xmlns="http://www.w3.org/2000/svg" xmlns:xlink="http://www.w3.org/1999/xlink" x="0px" y="0px"
	 viewBox="0 0 95 111" enable-background="new 0 0 95 111" xml:space="preserve">
<path fill="#003366" d="M79.6,77.4c4.5-6.5,7.1-14.5,7.1-22.6c0-4.9-0.9-9.8-2.7-14.4c-1-2.7-2.4-5.4-4.1-7.8c0.4-0.9,0.7-1.9,1-3
	c0.2-0.9,0.4-2,0.3-3.3c0-0.7-0.2-1.3-0.4-1.8c-0.1-0.4-0.3-0.7-0.5-0.9c-0.1-0.1-0.2-0.3-0.4-0.5c-0.1-0.1-0.1-0.2-0.2-0.2
	l-0.1-0.1c-1-0.9-2.2-1.4-3.8-1.6c-1.1-0.1-2.1,0-3.5,0.3c-0.9,0.2-1.9,0.5-2.8,0.8c-1.9-1.2-3.9-2.3-5.9-3.2
	c-2.4-1-4.9-1.8-7.5-2.3c-0.8-1.7-1.8-3.7-3.3-5.6C51.9,9.9,51,9,50,8.3c-0.7-0.4-1.4-0.8-2.1-1C47.5,7.2,47.1,7,46.7,7
	c-0.2,0-0.4-0.1-0.6-0.1l-0.7,0c-1.7,0-3.2,0.5-4.8,1.4C39.5,9,38.5,9.9,37.5,11c-1.4,1.7-2.7,3.6-3.8,6.1c-0.3,0.7-0.6,1.4-0.9,2.1
	C30.8,20,29,21,27.2,22.2c-0.4-0.1-0.8-0.2-1.3-0.2c-1.2-0.2-2.3-0.2-3.3,0c-1.2,0.2-2.5,0.7-3.3,1.4c-1,0.8-1.7,1.8-2.1,3
	c-0.4,1-0.5,2.1-0.6,3.3c0,0.9,0,1.8,0.2,2.7c-1.7,2.4-3.1,5.1-4.2,7.8c-1.8,4.6-2.7,9.5-2.6,14.6c0.1,4.9,1.1,9.7,3,14.4
	c1,2.4,2.2,4.7,3.7,6.8c-0.5,1.4-0.8,2.7-1,3.9c-0.1,0.9-0.3,2.1-0.1,3.3c0.1,0.8,0.5,2.4,1.8,3.5c1,0.8,2.3,1.2,3.7,1.2h0.1
	c1.3,0,2.5-0.2,3.3-0.4c0.9-0.3,1.8-0.6,2.6-0.9c2,1.4,4.2,2.5,6.4,3.5c0.7,0.3,1.3,0.6,2,0.8c0.4,0.8,0.8,1.5,1.2,2.3
	c1.4,2.4,2.7,4.2,4.3,5.8c1.1,1.1,2.1,1.9,3.3,2.5c0.7,0.4,1.5,0.7,2.2,0.9c0.4,0.1,0.8,0.3,1.3,0.3c0.2,0,0.5,0.2,0.8,0.2h0
	c0.1,0,0.2-0.2,0.3-0.2l0.2-0.2c2.2-0.1,3.7-1.1,4.6-1.8c1-0.7,1.8-1.7,2.6-2.9c1.4-2.1,2.3-4.3,3-6.1c0,0,0,0,0,0
	c1.5-0.4,3-0.9,4.3-1.5c1.8-0.8,3.6-1.7,5.2-2.7c0.7,0.1,1.5,0.3,2.2,0.3c0.4,0,0.7,0,1.1,0c0.8,0,1.6-0.1,2.3-0.2
	c1.3-0.3,2.5-0.9,3.3-1.7c1.1-1,1.6-2.2,1.8-3.1c0.3-1,0.4-2,0.3-3.2C79.9,79,79.8,78.2,79.6,77.4z M19.5,79.9
	c0.5,0.6,1,1.1,1.5,1.7c1.1,1.1,2.3,2.2,3.6,3.2c-0.3,0.1-0.6,0.1-0.8,0.2c-0.8,0.2-1.4,0.2-2,0.2h0c-0.2,0-0.3,0-0.5,0
	c-0.7-0.1-1.3-0.3-1.7-0.6c-0.6-0.6-0.7-2.1-0.3-3.9C19.4,80.4,19.5,80.1,19.5,79.9z M22.1,80.8c-0.7-0.7-1.4-1.5-2.1-2.3
	c0.3-0.9,0.8-1.8,1.3-2.9c1.8-3.6,4.1-6.9,6-9.4c0.3-0.4,0.7-0.9,1-1.3c0.7,5.6,1.8,10.8,3.4,15.9c0.1,0.3,0.2,0.6,0.3,0.9
	c-0.9,0.5-1.8,0.9-2.7,1.4C28,83.6,27,84,26.1,84.3C24.6,83.3,23.3,82.1,22.1,80.8z M43.9,12.1c0.3-0.2,0.6-0.4,0.9-0.6
	c0.1-0.1,0.3-0.1,0.4-0.2c0,0,0.1,0,0.1,0c0,0,0.1,0,0.1,0l0.1,0l0,0l0.1,0v0v0l0.3,0c0.2,0,0.4,0,0.6,0.1c0.3,0.1,0.7,0.2,1.1,0.4
	c0.7,0.3,1.4,0.9,2.2,1.6c0.8,0.7,1.5,1.6,2.2,2.6c-1.1-0.1-2.3-0.2-3.4-0.2c-2.6,0-5.1,0.3-7.6,0.7c0.4-1,0.9-1.8,1.4-2.6
	C42.8,13.2,43.3,12.6,43.9,12.1z M78.2,29c0,0.3-0.1,0.6-0.2,0.9c-0.6-0.7-1.2-1.5-1.9-2.2c-0.9-0.9-1.8-1.8-2.8-2.7c0,0,0,0,0,0
	c0.9-0.3,1.7-0.4,2.4-0.4l0.1,0c0.6,0,1.2,0.2,1.5,0.4C78.2,25.6,78.4,27,78.2,29z M48.5,91.5c-0.2,0-0.4,0.2-0.6,0.2
	c0,0-0.1,0-0.1,0c-1.6,0-3.2-0.1-4.8-0.4c-0.1-0.2-0.2-0.4-0.3-0.6c-1.3-3.1-2.4-6.7-3.4-11.3c2.1-1.4,4.3-3,6.5-4.7
	c2.7,2.3,5.5,4.3,8.3,6.2c1.7,1.1,3.3,2,4.8,2.9c-0.7,2.5-1.6,4.7-2.6,6.8C53.8,91.2,51.1,91.5,48.5,91.5z M22.4,29.3
	c1.7-1.7,3.5-3.2,5.5-4.5c0.8,0.2,1.7,0.4,2.6,0.8c-0.4,1.3-0.7,2.7-1.1,4.2c-1.2,5.3-1.8,10.9-2.1,16.8c-0.5-0.7-0.9-1.4-1.3-2.1
	c-1.6-2.6-3.6-6.1-4.9-9.8c-0.4-1.1-0.7-2.1-0.9-3C21,30.8,21.7,30,22.4,29.3z M48.5,18.5h0.2c1.7,0,3.4,0.1,5,0.4
	c1.5,2.7,2.8,5.8,4,9.4c-0.6,0.4-1.2,0.8-1.9,1.2c-2.4,1.6-4.7,3.4-7,5.3c-4.1-3.3-7.8-6-11-7.9c0.5-2.8,1.1-5.2,1.8-7.3
	C42.6,18.9,45.5,18.5,48.5,18.5z M77.4,32c-0.2,0.7-0.5,1.4-0.8,2.2c-1.3,3.2-3.1,6.5-5.3,10c-1.6,2.6-3.5,5.1-5.5,7.7
	c-0.8-1.1-1.7-2.2-2.5-3.2c-0.6-5.5-1.6-11-2.7-16.4c2.3-1.7,4.9-3.5,7.7-5.1c0.8-0.4,1.7-0.9,2.6-1.3c1.3,1,2.6,2,3.7,3.2
	C75.7,30,76.6,31,77.4,32z M56.8,62.2c-2.8,2.9-5.7,5.6-8.6,8.1c-0.1-0.1-0.2-0.1-0.2-0.2c-2.8-2.5-5.5-5.2-8.1-8
	c-1.5-1.6-3-3.2-4.4-4.9c0-0.4-0.1-0.8-0.1-1.2c2-2.3,4.2-4.7,6.6-7.1c3.4-3.5,6.7-6.7,10-9.6c2.3,2,4.5,4.2,6.7,6.5
	c1.1,1.2,2.1,2.3,3.1,3.5c0.1,1.6,0.3,3.2,0.3,4.9c0,0.7,0,1.4,0,2C60.5,58.3,58.7,60.3,56.8,62.2z M59.9,44.9
	c-2.3-2.4-4.6-4.5-6.8-6.5c2-1.7,3.9-3.3,5.9-4.9c0.1-0.1,0.1-0.1,0.2-0.2c1.1,4.2,1.9,8.7,2.4,13.4C61,46.1,60.5,45.5,59.9,44.9z
	 M37.8,45.1c-0.8,0.8-1.5,1.6-2.3,2.4c0.3-4.5,0.8-8.9,1.4-13.4c0.1-1.1,0.3-2.1,0.4-3.2c0.1-0.7,0.2-1.4,0.3-2
	c1.2,0.7,2.4,1.4,3.6,2.2c2.1,1.4,4.4,3,6.6,4.8C44.4,38.5,41.1,41.6,37.8,45.1z M60,79.5c-1-0.7-2.1-1.4-3.3-2.3
	c-2.2-1.6-4.6-3.5-7-5.6c3.4-2.8,6.6-5.6,9-8.2c1.2-1.5,2.4-2.9,3.6-4.3c0,7.1-0.7,13.7-2.1,19.9C60.1,79.2,60.1,79.4,60,79.5z
	 M63.7,54.5c0-1-0.1-2-0.2-3c0.4,0.6,0.9,1.1,1.3,1.7C64.5,53.6,64.1,54,63.7,54.5z M36.7,66.2c2.5,2.6,5,5,7.6,7.3
	c-1.7,1.4-3.4,2.6-5.2,3.8c-0.1,0.1-0.2,0.1-0.3,0.2C38.1,73.8,37.3,70,36.7,66.2z M61.8,80.7c0.1-0.5,0.1-0.9,0.2-1.3
	c0.9-7.1,1.9-14.5,1.8-22.1c0.7-0.9,1.4-1.8,2.1-2.7c2.4,3.2,4.5,6.5,6.4,9.8c2,3.7,3.5,7,4.4,10.3c0.3,1.2,0.5,2.2,0.6,3.2
	c-0.8,1-1.7,1.9-2.6,2.8c-1.4,1.4-3,2.7-4.6,3.8c-1.1-0.3-2.4-0.7-3.8-1.4C64.9,82.4,63.4,81.6,61.8,80.7z M66.4,23.5
	c-2.2,1-4.5,2.3-6.9,3.7c-0.5-2.3-1.3-4.9-2.2-7.6c3.3,0.8,6.6,2.1,9.6,3.7C66.7,23.3,66.6,23.4,66.4,23.5z M31.1,23.5
	c-0.2-0.1-0.4-0.2-0.7-0.3c0.3-0.2,0.6-0.3,0.9-0.5C31.3,23,31.2,23.2,31.1,23.5z M20.7,27.5c-0.2,0.2-0.4,0.5-0.6,0.7
	c0.1-1.1,0.5-2.1,1.1-2.7c0.7-0.7,1.7-1,3-1.1C22.9,25.4,21.8,26.4,20.7,27.5z M61.1,84.9c1.3,0.6,2.5,1.1,3.8,1.6
	c0.4,0.2,0.8,0.3,1.2,0.4c-2,1.1-4,1.9-6.1,2.7C60.4,88,60.8,86.4,61.1,84.9z M76.1,81.8c0.4-0.5,0.9-1,1.3-1.5
	c-0.1,1.6-0.7,3-1.6,3.6c-0.7,0.6-1.7,0.8-3,0.8C74,83.8,75.1,82.8,76.1,81.8z M43.7,92.9c1.6,0.2,3.2,0.3,4.8,0.3h0.1
	c2.2,0,4.5-0.2,6.6-0.5c-0.7,1.2-1.5,2.3-2.3,3.2c-2.1,2.4-3.9,2.9-5.7,1.6c-0.6-0.4-1.2-1-1.8-1.8C44.9,94.9,44.3,94,43.7,92.9z
	 M82.9,68.7c-1,2.3-2.3,4.6-3.8,6.7c-0.2-0.5-0.3-1-0.5-1.5c-1.4-3.9-6.3-12.9-11.9-20.6c6.4-8.5,10.4-15.2,11.9-18.2
	c0.1-0.3,0.3-0.6,0.4-0.9c1.5,2.1,2.7,4.2,3.7,6.6c1.9,4.3,2.9,9.1,2.9,14C85.8,59.6,84.8,64.5,82.9,68.7z M14.5,41
	c0.8-1.9,1.8-3.7,2.9-5.4c0,0.1,0,0.1,0,0.2c1,3.5,2.5,7.1,4.6,10.9c1.6,2.8,3.4,5.6,5.3,8.3c0,0.1,0,0.2,0,0.4
	c0,0.5,0.1,1.1,0.1,1.6c-1.6,2.2-3.1,4.3-4.6,6.5c-2.4,3.7-4.2,7.2-5.6,10.5c-0.1,0.2-0.2,0.4-0.2,0.6c-3.7-5.9-5.6-12.8-5.5-19.8
	C11.7,50.1,12.7,45.4,14.5,41z M30.2,85.1c0.7-0.4,1.5-0.8,2.4-1.4c0.7,1.9,1.4,3.7,2.1,5.3c-2.2-0.9-4.2-1.9-6.2-3.1
	C29,85.7,29.6,85.4,30.2,85.1z M48.6,102.3L48.6,102.3L48.6,102.3L48.6,102.3z"/>
</svg>
