<?xml version="1.0" encoding="utf-8"?>
<!-- Generator: Adobe Illustrator 18.1.0, SVG Export Plug-In . SVG Version: 6.00 Build 0)  -->
<svg version="1.1" id="Layer_1" xmlns="http://www.w3.org/2000/svg" xmlns:xlink="http://www.w3.org/1999/xlink" x="0px" y="0px"
	 viewBox="0 0 670 286" enable-background="new 0 0 670 286" xml:space="preserve">
<g>
	<path fill="#00344A" d="M212.1,39.5H208c-7.9,0-13.5,3.3-17.6,9.6l-67.1,99.6L56.5,49.4c-3.8-5.7-9.5-9.9-17.9-9.9h-4.1
		c-11,0-19.5,8.4-19.5,18.5v175.6c0,10.2,8.2,17.9,18.9,17.9c10.7,0,19.2-7.8,19.2-17.9V108.3l53.5,76.3c4.1,6,9.1,9.6,16.1,9.6
		c7.3,0,12.3-3.6,16.4-9.6l53.8-76.9v125.7c0,9.9,8.8,18.2,19.2,18.2c11,0,19.5-8.1,19.5-18.2V58.1
		C231.6,47.9,223.1,39.5,212.1,39.5z"/>
	<path fill="#00344A" d="M424.3,39.2c-11,0-19.5,8.1-19.5,18.3v103.8c0,38.6-21.1,58-55.4,58c-34.6,0-55.7-20.6-55.7-59.5V57.5
		c0-10.2-8.5-18.3-19.2-18.3c-11,0-19.5,8.1-19.5,18.3v103.8c0,60.7,36.5,92.1,93.9,92.1c57.6,0,94.8-31.4,94.8-93.9v-102
		C443.5,47.3,435,39.2,424.3,39.2z"/>
	<path fill="#00344A" d="M647.3,219.9L582.4,143l61.7-73c3.8-4.5,6-8.7,6-14.1c0-10.2-9.1-16.8-17.6-16.8c-8.5,0-13.9,3.6-18.9,10.2
		l-55.1,68.5l-55.7-69.7c-4.7-6-9.5-9-17.6-9c-11,0-19.2,7.8-19.2,18c0,5.1,2.8,9.9,6,13.8l61.7,72.7l-65.5,77.2
		c-3.5,4.5-5.7,8.7-5.7,13.8c0,10.5,8.8,17,17.6,17c8.5,0,13.6-3.6,18.9-10.2l58.3-72.1l59.2,73.3c4.7,6,9.4,9,17.6,9
		c11,0,19.2-7.8,19.2-17.9C653.3,228.3,650.5,223.8,647.3,219.9z"/>
</g>
</svg>
