<?xml version="1.0" encoding="utf-8"?>
<!-- Generator: Adobe Illustrator 18.1.0, SVG Export Plug-In . SVG Version: 6.00 Build 0)  -->
<svg version="1.1" id="Layer_1" xmlns="http://www.w3.org/2000/svg" xmlns:xlink="http://www.w3.org/1999/xlink" x="0px" y="0px"
	 viewBox="0 0 2052 1198" enable-background="new 0 0 2052 1198" xml:space="preserve">
<rect x="592" y="132" fill="#227F6C" width="734" height="76"/>
<rect x="955" y="-1" fill="#227F6C" width="725" height="66"/>
<rect x="171" y="400" fill="#227F6C" width="725" height="67"/>
<polygon fill="#E2B90E" points="845,399.8 118,415 118,322.2 845,334.2 "/>
<rect x="724" y="466" fill="#23615E" width="725" height="67"/>
<rect x="896" y="400" fill="#A3AA17" width="725" height="67"/>
<rect x="845" y="334" fill="#29A582" width="725" height="66"/>
<polygon fill="#6E810E" points="1293,341.9 568,334.2 568,267.6 1293,255.6 "/>
<rect x="1570" y="334" fill="#65C087" width="481" height="66"/>
<rect x="1293" y="268" fill="#66B08D" width="726" height="66"/>
<rect x="948" y="200" fill="#29A582" width="725" height="68"/>
<polygon fill="#496027" points="1047,278.5 322,266.5 322,198.8 1047,186.8 "/>
<rect x="1673" y="200" fill="#A3AA17" width="378" height="68"/>
<rect x="1621" y="400" fill="#6E810E" width="430" height="67"/>
<rect x="1325" y="130" fill="#496027" width="726" height="70"/>
<polygon fill="#29A582" points="600,207.6 -1,199.9 -1,131 600,131 "/>
<rect x="474" y="54" fill="#29A582" width="725" height="79"/>
<polygon fill="#6E810E" points="474,132.2 -1,144.2 -1,66 474,66 "/>
<polygon fill="#227F6C" points="573,345 -1,345 -1,266.5 573,254.5 "/>
<polygon fill="#E2B90E" points="2051,132 1922,132 1922,66 2050,66 "/>
<polygon fill="#65C087" points="1924,132 1199,132 1199,53.6 1924,65.6 "/>
<rect x="375" y="533" fill="#80BEAC" width="725" height="67"/>
<rect x="1" y="533" fill="#23615E" width="374" height="67"/>
<polygon fill="#227F6C" points="1825,600 1100,600 1100,514.4 1825,533 "/>
<rect x="1449" y="466" fill="#496027" width="602" height="67"/>
<rect x="2" y="402" fill="#29A582" width="170" height="67"/>
<polygon fill="#80BEAC" points="119,402 0,402 0,345.2 119,336.4 "/>
<rect x="2" y="200" fill="#23615E" width="321" height="67"/>
<rect x="2018" y="269" fill="#227F6C" width="33" height="65"/>
<rect x="230" y="1" fill="#65C087" width="725" height="66"/>
<polygon fill="#23615E" points="2052,64.5 1678,71.1 1678,-1 2052,-1 "/>
<rect fill="#227F6C" width="229" height="67"/>
<polygon fill="#A3AA17" points="724,545 -1,533 -1,467.5 724,458.7 "/>
<polygon fill="#29A582" points="2051,600 1798,600 1798,521 2052,533 "/>
<rect x="727" y="989" fill="#227F6C" width="734" height="76"/>
<rect x="373" y="1132" fill="#227F6C" width="725" height="66"/>
<rect x="1157" y="730" fill="#227F6C" width="725" height="67"/>
<polygon fill="#23615E" points="1208,797.2 1935,782 1935,874.8 1208,862.8 "/>
<rect x="604" y="664" fill="#23615E" width="725" height="66"/>
<rect x="432" y="730" fill="#6E810E" width="725" height="67"/>
<rect x="483" y="796" fill="#29A582" width="725" height="68"/>
<polygon fill="#6E810E" points="758,855.1 1485,862.8 1485,929.4 758,941.4 "/>
<rect x="3" y="796" fill="#65C087" width="480" height="68"/>
<rect x="-1" y="863" fill="#66B08D" width="761" height="66"/>
<rect x="380" y="928" fill="#E2B90E" width="725" height="69"/>
<polygon fill="#496027" points="1006,918.5 1731,930.5 1731,998.2 1006,1010.2 "/>
<rect x="3" y="927" fill="#A3AA17" width="377" height="70"/>
<rect x="3" y="730" fill="#A3AA17" width="429" height="67"/>
<rect x="3" y="997" fill="#496027" width="725" height="70"/>
<polygon fill="#29A582" points="1453,989.4 2054,997.1 2054,1066 1453,1066 "/>
<rect x="854" y="1064" fill="#29A582" width="725" height="79"/>
<polygon fill="#6E810E" points="1579,1064.8 2054,1052.8 2054,1131 1579,1131 "/>
<polygon fill="#227F6C" points="1480,852 2054,852 2054,930.5 1480,942.5 "/>
<rect x="3" y="1065" fill="#23615E" width="125" height="66"/>
<polygon fill="#65C087" points="127,1065 855,1065 855,1143.4 127,1131.4 "/>
<rect x="953" y="597" fill="#66B08D" width="725" height="67"/>
<rect x="1678" y="597" fill="#23615E" width="374" height="67"/>
<polygon fill="#227F6C" points="228,597 953,597 953,682.6 228,664 "/>
<rect x="3" y="664" fill="#496027" width="603" height="66"/>
<rect x="1881" y="728" fill="#29A582" width="170" height="67"/>
<polygon fill="#80BEAC" points="1934,794 2053,794 2053,851.8 1934,860.6 "/>
<rect x="1730" y="930" fill="#23615E" width="321" height="67"/>
<rect x="1098" y="1130" fill="#65C087" width="725" height="66"/>
<polygon fill="#23615E" points="1,1130.5 373,1123.9 373,1198 1,1198 "/>
<rect x="1824" y="1130" fill="#227F6C" width="229" height="67"/>
<polygon fill="#A3AA17" points="1329,652 2054,664 2054,729.5 1329,738.3 "/>
<polygon fill="#29A582" points="2,597 255,597 255,676 2,664 "/>
</svg>
