<?xml version="1.0" encoding="utf-8"?>
<!-- Generator: Adobe Illustrator 18.1.0, SVG Export Plug-In . SVG Version: 6.00 Build 0)  -->
<svg version="1.1" id="Layer_1" xmlns="http://www.w3.org/2000/svg" xmlns:xlink="http://www.w3.org/1999/xlink" x="0px" y="0px"
	 viewBox="0 0 612 396" enable-background="new 0 0 612 396" xml:space="preserve">
<g>
	<g>
		<path fill="#FFFFFF" d="M162.5,167.2c2.8,0,9.5,3.1,11.7,3.1c2.2,0,4.7,0.6,5.6,2.2c-2.2,18.6-7.9,37.8-6.2,57.6
			c0.4,5.6,3.8,18.9,7.8,18.9c14.5,0,21-65,21-81.5c0-19-1.5-17-1.5-18.7c0.9-0.6,2.4-0.3,3.1,0c0.9,0.3,9.1,4.6,9.1,5.9
			c1.6,19.3-1.9,63-8.5,85.8c-2.4,8.3-7.5,18-21,18c-5.3,0-18.9-6.1-21.8-9.8c-2.8-3.7-9.4-12.5-8-31.6c1.2-19.1,4-32.7,4.6-38.4
			c0.6-7.4-1.4-7.8-1.4-9.4C157,168.2,159.7,167.2,162.5,167.2z"/>
		<path fill="#FFFFFF" d="M230.4,255.8c-1.3,10-1.9,20.2-1.9,29.2c0,2.8,0.1,5.2,0.1,5.7c0.9,1.5-1.5,1.9-2.5,1.9
			c-2.2,0-3.9-1.2-5.7-1.2c-3.3,0-4.7-2.3-6.8-3.8c-1.6-1-1-6-1-7.3c0-15.6,1.5-30.5,2-45.4c0.3-7.1,1.3-25,1.3-32.6
			c0-3.6,0-7.1-2-8.4c0-0.6,0-0.9,0.6-0.9c0,0,3.8-1,5.2-1c3.1,0,9.6,1.3,11.9,2.8c0.7,0.6,1.3,0.7,1.3,1c0,0.3-1.6,8.3-1.9,10.3
			c-0.3,2.2-2.5,20.9-2.2,24.9h0.4c2.3-11.3,4.5-26,11-34.6c3.9,0,12.2,2.5,14.7,3.6c3.9,1.6,4.5,7.7,4.5,11c0,5.1-1,18.2-2.8,26.2
			c-1.2,5.2-3.9,16.7-8.3,20.5c-3.3,2.9-6.1,2.8-7,2.8C240.6,260.6,233.7,257.8,230.4,255.8z M231.1,250.4c2,1.2,5.2,3.2,5.8,3.2
			c12.4,0,13.4-32.3,13.4-38.4c0-5.8,0-12.1-4.1-12.1c-0.3,0-1.2,0.3-1.6,0.7C238.1,215.2,233.6,232.7,231.1,250.4z"/>
		<path fill="#FFFFFF" d="M266.9,169.5c0.3-2.5,1.2-9.2,3.1-9.7c1.6-0.3,6.3,1,8.6,2c2.2,1,6.4,2.2,6.5,4.9c0,2.8-1.9,13.2-2.5,15.4
			c5.5,0,16.3-0.3,17.4-0.3c1.2,0,2.2,0.9,2.2,2c0,1.9-4.2,3.1-6.5,3.5c-4.5,0.9-9.2,0.6-13.5,0.6c-1.7,8.3-5.4,38.1-5.4,46.1
			c0,8.3,0,17.2,8.3,17.2c5.5,0,9.7-3.8,10.9-4.7c0.6,0.1,1.2,0.3,1.9,0.9c0.6,0.4,0.9,1.6,0.6,1.9c-1.7,1.9-7.7,7.7-16.3,7.7
			c-16,0-20.2-18.3-20.2-30.4c0-8,1.9-29.8,2.8-37.2c-3.1,0.1-18.8-0.1-21.1-0.6c-2.2-0.4-2.5-1.5-2.5-1.7s0.9-1.9,1.5-2.2
			c0.6-0.3,20.2-1.9,22.7-2.5L266.9,169.5z"/>
		<path fill="#FFFFFF" d="M300.9,190.2c2.3,0,8.9,1,10.9,2.6c2.8,0.3,3.3,0.6,3.8,0.6c1,0.9,4.1,3.5,3.9,5.2c3.1,0.3,8,2.9,9.7,6.1
			c2.6,5.1,3.5,14.7,2.8,22.7c2.5,0,6.3-2.9,8-7.7c0.1-0.3,0.7-0.1,1,0.1c0.7,0.6,1.2,0.9,1.2,1.7c-0.3,2.5-2.2,10.8-10.8,11.3
			c-1.2,6.5-4.2,22.1-9.7,25.4c-2,0.6-6,1.2-8.3,1.2c-16,0-21.8-14.8-21.8-28.2c0-20.1,5.7-34.5,5.8-39.5
			C298.9,191.7,299.6,190.2,300.9,190.2z M308.1,237.3c0,4.4,0.7,16.1,6,16.1c5.7,0,9.7-17.6,9.9-21.1c-11-6.1-11.3-19.5-11.2-22.4
			C309.4,218.9,308.1,229.5,308.1,237.3z M319.1,202.9c-0.9,0-1.5,1.5-1.5,4.9c0,7.4,1.9,15.7,7.1,18.8
			C326.1,211.3,323.9,202.9,319.1,202.9z"/>
		<path fill="#FFFFFF" d="M393.1,234.1c-2.5,10-6.1,24-13.2,24c-7.1,0-12.8-6.8-14.5-12.8c-1.7,5.8-3.9,14.4-10.3,14.4
			c-5.1,0-11.2-3.8-14.1-7.4c-3.1-5.4-3.1-12.2-3.1-17.9c0-12.4,0.1-23.8,2.3-34.3c0-0.9,1-2,2.2-2c3.2,0,5.4,3.9,11.9,6.1
			c1.2,0.4,2.5,1.9,2.5,3.9c0,0.6-0.6,1.6-1.2,1.6c-0.9,4.5-2.8,22.7-2.8,29.8c0,7.6,1.5,14.7,2.8,14.7c4.7,0,8-29.7,8-36.5
			c0-9,0.3-11.6,0.3-14.4c3.6,0.9,3.8,0,5.5,0c0.6,0,6.4,2,7.4,2.6c1,0.6,2.8,2.9,2.8,4.7c0,3.2-4.7,40,1.7,40
			c2.6,0,5.8-14.7,7.3-22.5c-2.2-4.4-3.3-9.9-3.3-14.7c0-3.2,0.3-17.2,4.4-17.2c3.8,0,4.9,1.2,5.5,1.5c1.9,1.2,2.5,4.2,2.5,8.3
			c0,6.5-1.7,15.3-2.8,21.2c0.6,1.9,1.9,3.3,3.1,3.3c4.4,0,7.7-17.9,8.9-29.9c0.3-1.6,1.5-2.8,3.5-2.8c0.3,0,1.7,1.2,1.7,1.7
			c0,7.9-3.3,36.3-13.7,36.3C396.3,235.9,394.6,235.3,393.1,234.1z"/>
		<path fill="#FFFFFF" d="M404.7,216.1c0-5.5,0.7-12.2,2.2-19c0.1-0.9,2.5-2.2,3.1-2.5c0.3-0.3,4.7,0.3,5.5,0.3
			c2.8-0.6,8.6-0.1,8.6,3.6c0,1.3-0.7,2.6-0.9,3.8c-0.3,1.6-1.6,29.8-1.9,36.2c2-8.1,4.1-16.3,6.4-24.3c1.3-4.2,5.5-16.6,7.1-16.6
			c2.8,0.3,12.2,2.5,14.4,4.7c1.3,1.9,3.3,3.1,3.3,4.2c0,1-4.8,18.5-4.8,30.1c0,11.8,3.3,11.8,5.5,11.8c2,0,6.3-2.6,7.6-3.3
			c0.7-0.4,2.3-1.2,2.8-1.2c1.2,0,1.6,1,1.5,1.7c-0.1,0.6-5.4,8.6-16.4,8.6c-12.5,0-15.3-13.5-15.3-22.7c0-7,1-15,1.5-17.3l-0.6,0.3
			c-1.3,2.8-7.4,24-8.6,30.4c-1,6.3-1.3,11.8-1.6,12.1c-1.9,1.2-4.4-0.1-6.4,0c-1.6-0.3-7.7-3.5-8.3-4.1c0-0.3-0.6-3.6-0.7-4.9
			c0-1.5-0.3-21.4,0.4-28.8C408.1,218.3,405.3,217,404.7,216.1z"/>
	</g>
	<g>
		<g>
			<path fill="#FFFFFF" d="M160.4,149.3h-5.5v11.1h-2.5v-11.1h-5.4V147h13.5V149.3z"/>
			<path fill="#FFFFFF" d="M176.8,147v13.5h-2.6V155h-9.4v5.4h-2.5V147h2.5v5.8h9.4V147H176.8z"/>
			<path fill="#FFFFFF" d="M193.2,158.2v2.3h-12.9V147h12.4v2.3h-9.9v3.2h9.2v2.2h-9.2v3.5H193.2z"/>
		</g>
	</g>
	<path fill="#FFFFFF" d="M426.6,166.4c4.5-6.5,7.1-14.5,7.1-22.6c0-4.9-0.9-9.8-2.7-14.4c-1-2.7-2.4-5.4-4.1-7.8
		c0.4-0.9,0.7-1.9,1-3c0.2-0.9,0.4-2,0.3-3.3c0-0.7-0.2-1.3-0.4-1.8c-0.1-0.4-0.3-0.7-0.5-0.9c-0.1-0.1-0.2-0.3-0.4-0.5
		c-0.1-0.1-0.1-0.2-0.2-0.2l-0.1-0.1c-1-0.9-2.2-1.4-3.8-1.6c-1.1-0.1-2.1,0-3.5,0.3c-0.9,0.2-1.9,0.5-2.8,0.8
		c-1.9-1.2-3.9-2.3-5.9-3.2c-2.4-1-4.9-1.8-7.5-2.3c-0.8-1.7-1.8-3.7-3.3-5.6c-0.9-1.2-1.8-2-2.9-2.7c-0.7-0.4-1.4-0.8-2.1-1
		c-0.4-0.1-0.8-0.2-1.2-0.3c-0.2,0-0.4-0.1-0.6-0.1l-0.7,0c-1.7,0-3.2,0.5-4.8,1.4c-1.1,0.7-2.1,1.6-3.1,2.7
		c-1.4,1.7-2.7,3.6-3.8,6.1c-0.3,0.7-0.6,1.4-0.9,2.1c-1.9,0.9-3.8,1.9-5.6,3.1c-0.4-0.1-0.8-0.2-1.3-0.2c-1.2-0.2-2.3-0.2-3.3,0
		c-1.2,0.2-2.5,0.7-3.3,1.4c-1,0.8-1.7,1.8-2.1,3c-0.4,1-0.5,2.1-0.6,3.3c0,0.9,0,1.8,0.2,2.7c-1.7,2.4-3.1,5.1-4.2,7.8
		c-1.8,4.6-2.7,9.5-2.6,14.6c0.1,4.9,1.1,9.7,3,14.4c1,2.4,2.2,4.7,3.7,6.8c-0.5,1.4-0.8,2.7-1,3.9c-0.1,0.9-0.3,2.1-0.1,3.3
		c0.1,0.8,0.5,2.4,1.8,3.5c1,0.8,2.3,1.2,3.7,1.2h0.1c1.3,0,2.5-0.2,3.3-0.4c0.9-0.3,1.8-0.6,2.6-0.9c2,1.4,4.2,2.5,6.4,3.5
		c0.7,0.3,1.3,0.6,2,0.8c0.4,0.8,0.8,1.5,1.2,2.3c1.4,2.4,2.7,4.2,4.3,5.8c1.1,1.1,2.1,1.9,3.3,2.5c0.7,0.4,1.5,0.7,2.2,0.9
		c0.4,0.1,0.8,0.3,1.3,0.3c0.2,0,0.5,0.2,0.8,0.2h0c0.1,0,0.2-0.2,0.3-0.2l0.2-0.2c2.2-0.1,3.7-1.1,4.6-1.8c1-0.7,1.8-1.7,2.6-2.9
		c1.4-2.1,2.3-4.3,3-6.1c0,0,0,0,0,0c1.5-0.4,3-0.9,4.3-1.5c1.8-0.8,3.6-1.7,5.2-2.7c0.7,0.1,1.5,0.3,2.2,0.3c0.4,0,0.7,0,1.1,0
		c0.8,0,1.6-0.1,2.3-0.2c1.3-0.3,2.5-0.9,3.3-1.7c1.1-1,1.6-2.2,1.8-3.1c0.3-1,0.4-2,0.3-3.2C426.9,168,426.8,167.2,426.6,166.4z
		 M366.5,168.9c0.5,0.6,1,1.1,1.5,1.7c1.1,1.1,2.3,2.2,3.6,3.2c-0.3,0.1-0.6,0.1-0.8,0.2c-0.8,0.2-1.4,0.2-2,0.2h0
		c-0.2,0-0.3,0-0.5,0c-0.7-0.1-1.3-0.3-1.7-0.6c-0.6-0.6-0.7-2.1-0.3-3.9C366.4,169.4,366.5,169.1,366.5,168.9z M369.1,169.8
		c-0.7-0.7-1.4-1.5-2.1-2.3c0.3-0.9,0.8-1.8,1.3-2.9c1.8-3.6,4.1-6.9,6-9.4c0.3-0.4,0.7-0.9,1-1.3c0.7,5.6,1.8,10.8,3.4,15.9
		c0.1,0.3,0.2,0.6,0.3,0.9c-0.9,0.5-1.8,0.9-2.7,1.4c-1.1,0.5-2.1,0.9-3.1,1.2C371.6,172.3,370.3,171.1,369.1,169.8z M390.9,101.1
		c0.3-0.2,0.6-0.4,0.9-0.6c0.1-0.1,0.3-0.1,0.4-0.2c0,0,0.1,0,0.1,0c0,0,0.1,0,0.1,0l0.1,0l0,0l0.1,0v0v0l0.3,0c0.2,0,0.4,0,0.6,0.1
		c0.3,0.1,0.7,0.2,1.1,0.4c0.7,0.3,1.4,0.9,2.2,1.6c0.8,0.7,1.5,1.6,2.2,2.6c-1.1-0.1-2.3-0.2-3.4-0.2c-2.6,0-5.1,0.3-7.6,0.7
		c0.4-1,0.9-1.8,1.4-2.6C389.8,102.2,390.3,101.6,390.9,101.1z M425.2,118c0,0.3-0.1,0.6-0.2,0.9c-0.6-0.7-1.2-1.5-1.9-2.2
		c-0.9-0.9-1.8-1.8-2.8-2.7c0,0,0,0,0,0c0.9-0.3,1.7-0.4,2.4-0.4l0.1,0c0.6,0,1.2,0.2,1.5,0.4C425.2,114.6,425.4,116,425.2,118z
		 M395.5,180.5c-0.2,0-0.4,0.2-0.6,0.2c0,0-0.1,0-0.1,0c-1.6,0-3.2-0.1-4.8-0.4c-0.1-0.2-0.2-0.4-0.3-0.6c-1.3-3.1-2.4-6.7-3.4-11.3
		c2.1-1.4,4.3-3,6.5-4.7c2.7,2.3,5.5,4.3,8.3,6.2c1.7,1.1,3.3,2,4.8,2.9c-0.7,2.5-1.6,4.7-2.6,6.8
		C400.8,180.2,398.1,180.5,395.5,180.5z M369.4,118.3c1.7-1.7,3.5-3.2,5.5-4.5c0.8,0.2,1.7,0.4,2.6,0.8c-0.4,1.3-0.7,2.7-1.1,4.2
		c-1.2,5.3-1.8,10.9-2.1,16.8c-0.5-0.7-0.9-1.4-1.3-2.1c-1.6-2.6-3.6-6.1-4.9-9.8c-0.4-1.1-0.7-2.1-0.9-3
		C368,119.8,368.7,119,369.4,118.3z M395.5,107.5h0.2c1.7,0,3.4,0.1,5,0.4c1.5,2.7,2.8,5.8,4,9.4c-0.6,0.4-1.2,0.8-1.9,1.2
		c-2.4,1.6-4.7,3.4-7,5.3c-4.1-3.3-7.8-6-11-7.9c0.5-2.8,1.1-5.2,1.8-7.3C389.6,107.9,392.5,107.5,395.5,107.5z M424.4,121
		c-0.2,0.7-0.5,1.4-0.8,2.2c-1.3,3.2-3.1,6.5-5.3,10c-1.6,2.6-3.5,5.1-5.5,7.7c-0.8-1.1-1.7-2.2-2.5-3.2c-0.6-5.5-1.6-11-2.7-16.4
		c2.3-1.7,4.9-3.5,7.7-5.1c0.8-0.4,1.7-0.9,2.6-1.3c1.3,1,2.6,2,3.7,3.2C422.7,119,423.6,120,424.4,121z M403.8,151.2
		c-2.8,2.9-5.7,5.6-8.6,8.1c-0.1-0.1-0.2-0.1-0.2-0.2c-2.8-2.5-5.5-5.2-8.1-8c-1.5-1.6-3-3.2-4.4-4.9c0-0.4-0.1-0.8-0.1-1.2
		c2-2.3,4.2-4.7,6.6-7.1c3.4-3.5,6.7-6.7,10-9.6c2.3,2,4.5,4.2,6.7,6.5c1.1,1.2,2.1,2.3,3.1,3.5c0.1,1.6,0.3,3.2,0.3,4.9
		c0,0.7,0,1.4,0,2C407.5,147.3,405.7,149.3,403.8,151.2z M406.9,133.9c-2.3-2.4-4.6-4.5-6.8-6.5c2-1.7,3.9-3.3,5.9-4.9
		c0.1-0.1,0.1-0.1,0.2-0.2c1.1,4.2,1.9,8.7,2.4,13.4C408,135.1,407.5,134.5,406.9,133.9z M384.8,134.1c-0.8,0.8-1.5,1.6-2.3,2.4
		c0.3-4.5,0.8-8.9,1.4-13.4c0.1-1.1,0.3-2.1,0.4-3.2c0.1-0.7,0.2-1.4,0.3-2c1.2,0.7,2.4,1.4,3.6,2.2c2.1,1.4,4.4,3,6.6,4.8
		C391.4,127.5,388.1,130.6,384.8,134.1z M407,168.5c-1-0.7-2.1-1.4-3.3-2.3c-2.2-1.6-4.6-3.5-7-5.6c3.4-2.8,6.6-5.6,9-8.2
		c1.2-1.5,2.4-2.9,3.6-4.3c0,7.1-0.7,13.7-2.1,19.9C407.1,168.2,407.1,168.4,407,168.5z M410.7,143.5c0-1-0.1-2-0.2-3
		c0.4,0.6,0.9,1.1,1.3,1.7C411.5,142.6,411.1,143,410.7,143.5z M383.7,155.2c2.5,2.6,5,5,7.6,7.3c-1.7,1.4-3.4,2.6-5.2,3.8
		c-0.1,0.1-0.2,0.1-0.3,0.2C385.1,162.8,384.3,159,383.7,155.2z M408.8,169.7c0.1-0.5,0.1-0.9,0.2-1.3c0.9-7.1,1.9-14.5,1.8-22.1
		c0.7-0.9,1.4-1.8,2.1-2.7c2.4,3.2,4.5,6.5,6.4,9.8c2,3.7,3.5,7,4.4,10.3c0.3,1.2,0.5,2.2,0.6,3.2c-0.8,1-1.7,1.9-2.6,2.8
		c-1.4,1.4-3,2.7-4.6,3.8c-1.1-0.3-2.4-0.7-3.8-1.4C411.9,171.4,410.4,170.6,408.8,169.7z M413.4,112.5c-2.2,1-4.5,2.3-6.9,3.7
		c-0.5-2.3-1.3-4.9-2.2-7.6c3.3,0.8,6.6,2.1,9.6,3.7C413.7,112.3,413.6,112.4,413.4,112.5z M378.1,112.5c-0.2-0.1-0.4-0.2-0.7-0.3
		c0.3-0.2,0.6-0.3,0.9-0.5C378.3,112,378.2,112.2,378.1,112.5z M367.7,116.5c-0.2,0.2-0.4,0.5-0.6,0.7c0.1-1.1,0.5-2.1,1.1-2.7
		c0.7-0.7,1.7-1,3-1.1C369.9,114.4,368.8,115.4,367.7,116.5z M408.1,173.9c1.3,0.6,2.5,1.1,3.8,1.6c0.4,0.2,0.8,0.3,1.2,0.4
		c-2,1.1-4,1.9-6.1,2.7C407.4,177,407.8,175.4,408.1,173.9z M423.1,170.8c0.4-0.5,0.9-1,1.3-1.5c-0.1,1.6-0.7,3-1.6,3.6
		c-0.7,0.6-1.7,0.8-3,0.8C421,172.8,422.1,171.8,423.1,170.8z M390.7,181.9c1.6,0.2,3.2,0.3,4.8,0.3h0.1c2.2,0,4.5-0.2,6.6-0.5
		c-0.7,1.2-1.5,2.3-2.3,3.2c-2.1,2.4-3.9,2.9-5.7,1.6c-0.6-0.4-1.2-1-1.8-1.8C391.9,183.9,391.3,183,390.7,181.9z M429.9,157.7
		c-1,2.3-2.3,4.6-3.8,6.7c-0.2-0.5-0.3-1-0.5-1.5c-1.4-3.9-6.3-12.9-11.9-20.6c6.4-8.5,10.4-15.2,11.9-18.2c0.1-0.3,0.3-0.6,0.4-0.9
		c1.5,2.1,2.7,4.2,3.7,6.6c1.9,4.3,2.9,9.1,2.9,14C432.8,148.6,431.8,153.5,429.9,157.7z M361.5,130c0.8-1.9,1.8-3.7,2.9-5.4
		c0,0.1,0,0.1,0,0.2c1,3.5,2.5,7.1,4.6,10.9c1.6,2.8,3.4,5.6,5.3,8.3c0,0.1,0,0.2,0,0.4c0,0.5,0.1,1.1,0.1,1.6
		c-1.6,2.2-3.1,4.3-4.6,6.5c-2.4,3.7-4.2,7.2-5.6,10.5c-0.1,0.2-0.2,0.4-0.2,0.6c-3.7-5.9-5.6-12.8-5.5-19.8
		C358.7,139.1,359.7,134.4,361.5,130z M377.2,174.1c0.7-0.4,1.5-0.8,2.4-1.4c0.7,1.9,1.4,3.7,2.1,5.3c-2.2-0.9-4.2-1.9-6.2-3.1
		C376,174.7,376.6,174.4,377.2,174.1z M395.6,191.3L395.6,191.3L395.6,191.3L395.6,191.3z"/>
	<g>
		<path fill="#FFFFFF" d="M288.9,281.2h-9.5v19h-4.3v-19h-9.2v-3.9h23V281.2z"/>
		<path fill="#FFFFFF" d="M316.6,277.2v23h-4.4v-9.2h-16.1v9.2h-4.3v-23h4.3v9.9h16.1v-9.9H316.6z"/>
		<path fill="#FFFFFF" d="M344.2,296.3v3.9h-22.1v-23h21.2v3.9h-16.9v5.5h15.8v3.8h-15.8v6H344.2z"/>
		<path fill="#FFFFFF" d="M372,300.2l-3-6h-14.3l-3.4,6h-5.2l13.7-23h5.2l11.9,23H372z M356.9,290.3h10.2l-4.8-9.6L356.9,290.3z"/>
		<path fill="#FFFFFF" d="M396.6,281.2h-9.5v19h-4.3v-19h-9.2v-3.9h23V281.2z"/>
		<path fill="#FFFFFF" d="M399.5,300.2v-22.8h14.8c5.5,0,8,3,8,6.9c0,3.4-1.9,6.2-6,6.8l7.1,9.1H418l-6.9-9h-7.3v9H399.5z
			 M403.8,281v6.5h10.4c2.6,0,4.2-1.2,4.2-3.3c0-1.8-1.6-3.2-4.2-3.2H403.8z"/>
		<path fill="#FFFFFF" d="M448.7,296.3v3.9h-22.1v-23h21.2v3.9h-16.9v5.5h15.8v3.8h-15.8v6H448.7z"/>
	</g>
</g>
</svg>
